<svg xmlns="http://www.w3.org/2000/svg" width="188" height="271" fill="none"><g fill="#E8E0CC" clip-path="url(#a)"><path d="M38.683 37.985V38h.005v-.01l-.005-.01v.005Zm0 0V38h.005v-.01l-.005-.01v.005Z"/><path d="m61.46 241.606.01.01s-.006-.01-.01-.01Zm.058.048s-.03-.024-.044-.033c.005.019.02.043.03.067.018 0 .033 0 .052-.005l-.038-.029Zm0 0s-.03-.024-.044-.033c.005.019.02.043.03.067.018 0 .033 0 .052-.005l-.038-.029Zm-.058-.048.01.01s-.006-.01-.01-.01Zm0 0 .01.01s-.006-.01-.01-.01Zm.058.048s-.03-.024-.044-.033c.005.019.02.043.03.067.018 0 .033 0 .052-.005l-.038-.029ZM86.3 102.446c-.126.053-.247.101-.368.149.189.465.382.926.575 1.386.117-.048.233-.096.354-.144-.19-.465-.378-.925-.561-1.391Zm68.963-41.351-.116-.015c.024.015.053.034.087.048h.072l-.043-.029v-.004Zm-68.963 41.351c-.126.053-.247.101-.368.149.189.465.382.926.575 1.386.117-.048.233-.096.354-.144-.19-.465-.378-.925-.561-1.391ZM61.518 241.654s-.03-.024-.044-.033c.005.019.02.043.03.067.018 0 .033 0 .052-.005l-.038-.029Zm-.049-.038s-.005-.01-.01-.01l.01.01Zm93.795-180.521-.116-.015c.024.015.053.034.087.048h.072l-.043-.029v-.004Zm32.32-37.246c-7.967 3.847-15.002 8.034-22.568 10.763-36.711 13.254-74.32 15.45-112.55 7.9-2.639-.517-5.114-1.837-7.653-2.863C86.04 48.46 125.952 43.73 164.726 28.89c.595-9.943 1.146-19.12 1.726-28.89-23.767 17.167-49.962 25.11-77.859 29.044-27.727 3.914-55.155 3.434-82.428-4.087-.16.724-.319 1.444-.483 2.168 5.29 2.859 10.578 5.718 16.414 8.869h-7.62c-.522 3.727-1.498 7.44-1.489 11.152.17 58.318.46 116.63.745 174.948.048 9.823.227 19.651.338 29.475.03 2.691.392 5.084 4.472 4.921v-38.905c-.043.11-.13.216-.188.326-.097-.015-.194-.034-.29-.048-.02-.293-.058-.585-.058-.878.048-13.042.106-26.079.16-39.121.067-15.872.15-31.744.197-47.621.04-13.248.049-26.497.063-39.75 0-1.444.121-2.859.692-4.206.319-.749.735-1.43 1.358-1.972.928-.815 2.04-.849 3.196-.878-.014.15 0 .187-.02.211-.038.053-.081.12-.144.15-.774.383-1.19 1.016-1.422 1.841-.3 1.055-.952 1.967-1.823 2.648-.014.01-.024.019-.038.028-.658.528-.982 1.363-.919 2.202l.411 5.425c.005.072.005.144.005.216 0 1.17-.01 2.336-.024 3.506l.348 33.078c1.929-7.516 5.009-14.534 9.611-20.894 2.162-2.988 4.584-5.766 7.562-8.001 3.056-2.293 6.416-3.885 10.322-4.096.116 0 .232.024.348.038-1.426.672-2.504 1.708-3.597 2.749a4.32 4.32 0 0 1-2.75 1.204c-.63.043-1.262.115-1.881.249-1.905.408-3.588 1.295-4.922 2.691a49.737 49.737 0 0 0-3.709 4.293c-3.858 5.06-6.696 10.672-8.828 16.635a60.33 60.33 0 0 0-2.132 7.29l1.32 123.624c2.437.998 4.419 2.039 6.537 2.648 28.936 8.303 58.278 11.977 88.437 8.547 21.196-2.412 40.066-11.123 59.158-19.599 7.668-3.401 10.821-8.149 10.855-16.836.265-68.141 1.034-136.282 1.624-204.427.014-1.598-.261-3.2-.416-5.008Zm-63.456 34.094c.546-.11 1.093-.235 1.644-.321 6.764-1.041 13.474-.681 20.156.7 3.877.806 7.769 1.535 11.734 1.78 3.312.206 6.609.115 9.882-.451 1.417-.245 4.559-1.895 5.691-3.027-1.204.005-1.828.883-2.679 1.267-.909.417-1.885.676-3.084 1.093.792-1.276 1.498-2.202 2.76-2.57 2.026-.59 4.042-1.21 6.194-1.857-.242.364-.397.724-.658.974-.991.94-2.04 1.822-3.027 2.767-2.228 2.135-4.984 2.451-7.909 2.466-3.177.019-6.348.23-9.525.36.518.345 1.006.738 1.562 1.007 4.467 2.211 8.47 5.017 11.734 8.802 1.939 2.244 3.312 4.835 4.598 7.473 1.237 2.542 2.33 5.142 2.91 7.938.189.916.687 1.77 1.209 2.422-1.146-.849-2.311-1.674-3.428-2.551-1.334-1.056-2.055-2.519-2.354-4.135-.155-.85.024-1.76.328-2.72.837 1.948 1.678 3.9 2.514 5.852.097-.02.194-.038.291-.053.019-.244.116-.513.048-.724-.629-1.971-1.257-3.943-1.949-5.89-.599-1.684-1.6-3.132-2.789-4.48-6.928-7.871-15.829-12.352-25.886-14.822-4.404-1.08-8.876-1.746-13.435-1.501-2.63.139-5.261.321-7.838.48.373-.077.837-.183 1.306-.279Zm21.428 95.583c-6.203 11.147-11.058 22.793-13.615 35.332-.798-6.418-1.886-12.635 1.151-18.933 3.118-6.465 6.115-12.927 10.496-18.658.517-.677 1.054-1.382 1.721-1.895.624-.485 1.431-.729 2.156-1.084.252.825.798 1.688.696 2.465-.338 2.538-.904 5.046-1.397 7.565-1.59 8.149-2.142 16.308-1.334 24.625.769 7.939 2.765 15.465 6.459 22.487 4.622 8.787 10.936 15.776 21.283 17.959.483.1.976.134 1.465.201-8.084-.369-14.181-4.528-19.006-10.653-9.36-11.896-12.415-25.787-12.043-40.508.155-6.034 1.305-12.049 2.006-18.073.029-.264.068-.528-.038-.83ZM85.943 54.6c-11.971 3.502-22.032 2.197-23.105-2.825 3.988-2.509 19.943-.758 23.105 2.825ZM44.006 39.52l-.044.014c-.72 0-.4 0 .044-.015Zm13.122 11.094c-7.136 1.885-13.277.71-17.628-3.3 6.42-1.621 11.459.585 17.628 3.3Zm-18.45-12.649v.01l.005.01.005.01v.023s0-.01-.005-.02c0-.009-.005-.014-.005-.023l-.005-.01h.005Zm-.13-.312.014.039c.01-.005.015-.005.024-.005l.073.235c-.024-.057-.058-.144-.097-.23-.12.01-.246.024-.372.038.12-.028.237-.052.358-.076Zm-17.183 4.75 9.858 2.69c-.14.643-.276 1.286-.416 1.928-3.36-.69-6.72-1.386-10.08-2.077.212-.849.425-1.698.638-2.542Zm7.992 36.372c-2.422-.053-4.86-.12-7.296-.187l.203-1.765c3.007-2.067 4.878.662 7.093 1.952.135.005.266.005.401.01l-.222.014c.087.072.178.144.27.211a5.747 5.747 0 0 1-.45-.235Zm5.13-7.713c-4.057-.873-8.109-1.746-12.165-2.624l.479-2.13c4.404-.695 8.146 1.574 12.082 2.974-.136.595-.266 1.19-.397 1.78ZM23.104 55.684l12.556 4.144c-7.793 2.691-12.41 1.228-12.556-4.144Zm-.058-5.737c3.573-2.384 14.166.302 19.01 4.82-6.908.653-15.596-1.548-19.01-4.82Zm23.725 13.517.232-1.77 7.039.95c-.068.547-.14 1.094-.208 1.64l-7.063-.82ZM25.199 254.293c.41-1.271.764-2.345 1.233-3.794 5.516 1.856 10.627 3.569 16.191 5.44-3.679 3.276-8.2 2.714-17.424-1.646Zm23.328 2.72c4.153.955 8.79-.11 12.744 3.396-6.788 3.036-12.977 1.333-12.744-3.396Zm19.039 3.386c3.104.235 5.903.451 8.707.662-3.96 4.495-6.976 4.015-8.707-.662Zm9.549-18.198c-4.676.23-9.327.273-13.949-.6-.517-.095-1.068.044-1.61.082.996.763 2.036 1.482 2.978 2.307a36.346 36.346 0 0 1 2.964 2.873c.745.811 1.562 1.655 1.987 2.638.91 2.101 1.581 4.303 2.345 6.462.102.283.174.57.32 1.05-2.945-1.871-5.198-5.324-5.938-8.994 1.484 1.377 1.509 3.655 3.259 4.667-.373-1.069-.754-2.134-1.402-3.007-1.412-1.914-2.732-3.991-4.511-5.526-2.345-2.029-5.164-3.449-8.166-4.456-7.359-2.47-13.204-6.95-17.42-13.397-2.64-4.043-4.254-8.495-4.955-13.315-.639-4.428-.32-8.639 1.663-12.678-.082.557-.155 1.108-.242 1.66-.348 2.197-1 4.394-.981 6.59.038 5.157 1.387 10.069 3.906 14.597 4.342 7.799 10.941 12.907 19.455 15.617 5.096 1.622 10.337 2.413 15.704 2.6 5.153.178 10.2-.292 15.176-1.602.188-.053.334-.278.348-.292-2.843.326-5.763.657-8.678.988 4.24-2.495 8.77-2.83 13.585-1.794-3.578 2.868-7.706 3.655-12.034 3.755-1.266.029-2.543-.287-3.804-.225Zm4.597 20.558c3.883-1.204 7.61-1.784 12.034 1.626-5.25 1.727-8.915 1.809-12.034-1.626Zm17.681-.705h11.343c-3.627 3.425-7.717 3.564-11.343 0Zm16.032 1.329c-.077-.72-.159-1.444-.237-2.163l8.916-1.166c.067.811.14 1.617.212 2.427-2.963.298-5.927.6-8.891.902Zm10.729-43.928c-2.041 6.893-4.69 13.484-8.597 19.551-.449.696-.928 1.382-1.397 2.068-.169-.072-.338-.149-.507-.226.406-1.055.889-2.086 1.199-3.17 2.378-8.346 3.21-16.832 2.552-25.504-.71-9.291-2.698-18.261-6.188-26.899-3.559-8.817-8.858-16.477-15.54-23.259-3.403-3.459-7.01-6.519-11.815-7.891 7.025-.465 12.217 3.156 16.82 7.685 9.355 9.19 14.814 20.591 18.604 32.948 2.171 7.089 3.462 14.265 3.423 21.666-.01 1.228-.218 2.456-.334 3.684.208.038.416.072.619.11.764-3.386 1.91-6.739 2.205-10.164.57-6.605 1.184-13.277.807-19.863-.401-6.96-1.498-13.953-3.079-20.75-1.746-7.483-4.386-14.774-8.157-21.532-3.587-6.428-7.411-12.726-11.202-19.038a32.734 32.734 0 0 0-3.418-4.667c-.45-.513-1.504-.887-2.18-.768-4.806.878-8.65-1.007-12.465-3.923 4.492-2.048 8.104.192 12.116 1.424-1.614-2.019-3.142-4.12-4.907-6.005-.382-.412-1.644-.206-2.432-.014-4.042.988-7.745.129-11.323-1.602.02-.235.044-.47.063-.706 3.766.269 7.533.542 11.802.849-4.361-1.899-8.529-1.923-12.745-1.889 3.8-1.42 6.107-1.339 11.338.383-.44-2.604-2.34-3.909-4.86-3.295-5.67 1.386-10.321-.83-14.663-4.255l13.18 2.509c-3.515-2.178-7.083-3.358-10.898-3.914 4.351-.825 8.02 1.396 11.845 2.936.116-.187.237-.375.358-.566-1.073-.931-2.035-2.058-3.244-2.763-8.964-5.214-15.97-12.342-21.273-21.168-.343-.57-.595-1.199-.885-1.799.165-.153.334-.306.503-.46 4.085 3.209 8.31 6.255 12.217 9.665 3.96 3.459 7.606 7.272 10.995 10.553-.252-2.682-.566-6.097-.88-9.507l1.078-.216c1.446 4.85 2.891 9.699 4.337 14.543.193-.024.391-.052.585-.076-.474-2.471-.822-4.97-1.456-7.397-.643-2.47-1.566-4.868-2.257-7.329 3.374 4.595 5.245 9.641 4.404 15.436-.425 2.911.368 4.59 3.573 6.417-1.721-4.417-1.91-8.552-.377-13.171 1.856 4.48 1.537 8.811 2.011 13.023 1.252-4.245.865-8.423-.319-12.582.198-.053.392-.1.59-.149.435 1.602 1.228 3.2 1.228 4.802 0 3.012-.256 6.058-.788 9.018-.508 2.834 1.474 4.048 3.094 5.746.005-4.13.43-8.082 3.293-11.493-.266 4.461-.537 8.927-.803 13.388l.334.086 1.668-8.644c.899 2.317.725 6.14-.474 8.701-.696 1.497-.556 2.634.454 3.919 6.392 8.135 12.015 16.779 16.463 26.113 5.178 10.855 8.838 22.209 9.563 34.253.715 11.9-.445 23.666-3.858 35.178Zm4.129 39.851c5.535-1.612 9.809-2.854 14.083-4.097-3.829 5.291-7.997 6.529-14.083 4.097Zm19.788-4.499c.595-3.396 5.903-6.62 12.706-7.546-.421 5.09-6.435 8.495-12.706 7.546Zm21.626-8.438c-.691-3.808 1.228-5.693 7.31-6.83-.967 4.552-2.799 7.094-7.31 6.83ZM155.148 61.08c.024.015.053.034.087.048h.072l-.043-.029-.116-.014v-.005Zm-69.215 41.515c.189.465.382.926.575 1.386.117-.048.233-.096.354-.144-.19-.465-.378-.925-.561-1.391-.126.053-.247.101-.368.149ZM61.474 241.621l.03.067c.018 0 .033 0 .052-.005l-.038-.029c-.015-.009-.03-.024-.044-.033Zm-.005-.005s-.005-.01-.01-.01l.01.01Zm-.01-.01.01.01s-.005-.01-.01-.01Zm.059.048s-.03-.024-.044-.033c.005.019.02.043.03.067.018 0 .033 0 .052-.005l-.038-.029Zm93.746-180.56-.116-.014c.024.015.053.034.087.048h.072l-.043-.029v-.004Zm0 0-.116-.014c.024.015.053.034.087.048h.072l-.043-.029v-.004Zm-93.746 180.56s-.03-.024-.044-.033c.005.019.02.043.03.067.018 0 .033 0 .052-.005l-.038-.029Zm-.058-.048.01.01s-.006-.01-.01-.01Z"/><path d="m2.446 26.784 9.041 7.843c-.657 72.866-1.31 144.877-1.963 216.971-6.715-2.116-9.543-6.519-9.52-12.889.117-29.307-.096-58.615.044-87.922.112-23.288.551-46.571.866-69.858.154-11.407.3-22.813.58-34.215.15-6.144.575-12.279.948-19.925l.004-.005Z"/></g><defs><clipPath id="a"><path fill="#fff" d="M0 0h188v271H0z"/></clipPath></defs></svg>