<?xml version="1.0" encoding="utf-8"?>
<!-- Generator: Adobe Illustrator 28.3.0, SVG Export Plug-In . SVG Version: 6.00 Build 0)  -->
<svg version="1.1" id="Layer_1" xmlns="http://www.w3.org/2000/svg" xmlns:xlink="http://www.w3.org/1999/xlink" x="0px" y="0px"
	 viewBox="0 0 97 84" style="enable-background:new 0 0 97 84;" xml:space="preserve">
<style type="text/css">
	.st0{fill:#ACA38C;}
	.st1{fill:#fff;}
	.st2{fill:#C7A77A;}
	.st3{fill:#406C7D;}
	.st4{fill:none;stroke:#ACA38C;stroke-width:2.7301;stroke-miterlimit:10;stroke-dasharray:8.1904,8.1904;}
</style>
<path class="st1" d="M36,23.6c5.4-0.2,10.5,1.4,14.9,4.8c2.6,2,5.3,3.8,8.2,5.4c8.9,4.9,18,6.4,28.3,6.7c0,0,0.9,0.1,0.9,0.1
	c0.4,0,0.7,0.3,0.7,0.8v0.9c0,0.4-0.3,0.7-0.7,0.8c0,0-0.8,0.1-0.9,0.1c-10.2,0.3-19.4,1.8-28.3,6.7c-2.9,1.6-5.6,3.5-8.2,5.4
	c-4.4,3.4-9.5,4.9-14.9,4.8c-7.9-0.2-15.8-0.5-23.7,1.8c0.4-0.4,0.7-1,1.2-1.3c14-10.9,30.1-16.4,47.3-18.7
	C43.6,39.5,27.5,34,13.5,23.1c-0.5-0.4-0.8-0.9-1.2-1.3C20.2,24.1,28.1,23.9,36,23.6z"/>
</svg>
