<svg width="784" height="599" viewBox="0 0 784 599" fill="none" xmlns="http://www.w3.org/2000/svg">
<g opacity="0.07">
<path d="M354.252 399.095C373.022 392.575 390.222 382.915 406.822 372.205C449.472 344.695 484.412 309.195 513.902 268.125C517.142 263.605 520.312 259.035 523.472 254.455C525.342 251.735 527.572 250.985 530.602 252.615C533.442 254.145 533.342 256.405 532.622 259.025C526.822 280.295 519.252 300.835 507.742 319.755C475.952 372.025 436.422 417.715 389.942 457.375C368.372 475.785 343.232 488.395 317.402 499.635C311.292 502.295 305.092 504.825 298.752 506.845C291.382 509.185 285.302 513.265 279.742 518.475C267.972 529.495 258.952 542.355 253.132 557.395C248.812 568.555 247.482 579.945 250.562 591.695C251.082 593.695 250.992 595.855 251.222 598.325C245.302 598.255 242.452 595.465 240.342 591.155C234.652 579.535 234.672 567.615 237.892 555.405C240.552 545.345 244.882 536.095 250.792 527.555C252.362 525.285 253.942 523.025 256.442 519.425C249.642 520.375 244.092 521.035 238.592 521.935C205.792 527.315 173.212 526.235 140.992 518.095C135.532 516.715 131.322 517.495 126.942 520.505C115.022 528.695 104.922 538.475 99.7118 552.295C98.1718 556.375 97.6218 560.865 96.8818 565.205C96.4618 567.655 96.8718 570.575 93.5518 571.045C90.3618 571.495 89.3718 568.765 88.4218 566.495C85.5018 559.545 85.8318 552.375 87.5718 545.255C90.5618 533.025 97.4317 523.005 105.842 513.895C107.332 512.285 108.792 510.645 110.722 508.525C108.202 507.195 106.142 506.025 104.012 505.005C62.5418 485.105 32.9618 454.135 16.3918 411.025C10.7218 396.275 4.62179 381.755 2.27179 365.875C-0.90821 344.455 -0.908261 323.125 3.28174 301.995C14.7617 243.995 42.6818 195.485 88.7718 158.025C109.582 141.115 133.002 129.055 159.782 124.895C195.192 119.395 225.532 128.675 250.452 155.525C261.542 167.475 266.542 181.125 268.222 196.645C269.002 203.805 269.322 211.015 270.242 218.145C270.652 221.355 271.662 224.625 273.042 227.565C275.262 232.305 278.012 236.795 280.822 241.895C279.332 242.595 278.212 243.495 277.022 243.615C268.722 244.475 260.422 245.345 252.102 245.875C240.362 246.625 232.122 252.225 227.972 263.175C226.922 265.945 225.492 267.205 222.912 267.905C214.582 270.155 206.252 272.135 197.502 272.015C191.522 271.925 185.872 271.575 182.322 265.045C180.032 269.395 181.502 272.105 184.462 273.325C188.492 274.985 192.852 276.525 197.142 276.735C210.342 277.385 223.202 275.045 235.352 269.825C267.292 256.095 298.722 241.385 328.202 222.745C373.462 194.135 414.102 160.295 447.672 118.375C469.032 91.695 486.712 62.895 497.142 30.105C499.232 23.525 500.332 16.635 501.842 9.87497C502.142 8.52497 502.282 7.12497 502.452 5.74497C502.782 3.13497 503.482 0.634975 506.452 0.0949752C509.832 -0.515025 511.512 1.91495 512.752 4.47495C514.322 7.71495 515.992 10.975 517.032 14.395C526.242 44.685 535.332 74.995 533.452 107.285C531.792 135.765 526.382 163.475 516.942 190.365C490.292 266.275 446.232 329.835 382.222 379.085C374.742 384.835 366.562 389.675 358.792 395.055C357.152 396.195 355.882 397.865 354.442 399.285C353.682 399.505 352.922 399.735 352.162 399.955C352.872 399.675 353.562 399.385 354.252 399.095ZM504.902 23.415C504.512 25.405 503.742 27.395 503.792 29.365C503.992 37.545 502.092 45.305 499.732 53.045C492.262 77.505 480.062 99.575 465.392 120.325C432.032 167.535 389.832 205.475 341.612 236.885C303.452 261.735 263.052 281.845 218.652 293.155C217.532 293.435 216.512 294.115 213.642 295.445C216.722 295.895 217.802 296.355 218.712 296.135C228.942 293.615 239.342 291.605 249.322 288.305C340.022 258.345 412.042 202.825 468.302 126.415C489.142 98.105 503.702 66.745 507.732 31.235C508.022 28.595 509.252 25.925 504.902 23.415ZM227.422 196.195C227.172 188.775 222.602 183.355 216.932 183.745C210.782 184.165 206.422 189.155 206.662 195.505C206.902 202.155 212.012 207.645 217.922 207.595C223.452 207.545 227.642 202.525 227.422 196.195ZM197.742 226.275C199.172 230.725 201.932 233.665 206.842 233.185C210.092 232.865 213.112 231.605 213.422 228.105C208.022 227.475 203.122 226.895 197.742 226.275Z" fill="#E8E1CD"/>
<path d="M780.422 510.435C762.472 482.345 739.902 458.345 715.262 436.075C679.352 403.625 640.182 376.045 596.282 355.475C581.702 348.645 566.792 342.535 550.892 339.335C548.792 338.915 546.652 338.745 544.862 338.505C561.052 345.935 577.832 352.585 593.622 361.075C650.002 391.395 701.652 428.285 746.652 474.075C759.352 486.995 770.502 501.185 779.922 516.685C781.212 518.805 782.632 521.005 783.212 523.355C783.572 524.815 782.952 527.505 781.922 528.065C780.632 528.765 778.442 527.925 776.672 527.595C776.262 527.515 776.002 526.755 775.642 526.325C752.702 498.915 724.422 477.885 694.422 459.055C654.002 433.675 611.122 413.465 565.452 399.375C559.662 397.585 553.632 396.565 547.712 395.195L547.442 394.815L547.842 395.065C560.702 404.265 573.892 413.055 586.352 422.765C601.562 434.615 614.412 448.895 625.872 464.405C633.212 474.325 638.112 484.495 639.702 494.665C626.362 473.065 610.302 456.495 592.302 441.685C574.292 426.865 555.022 414.055 533.152 405.055C534.172 405.925 535.092 406.975 536.242 407.635C567.642 425.735 595.002 448.655 618.252 476.455C626.122 485.875 633.332 495.765 637.562 507.445C639.772 513.545 639.042 514.675 632.432 516.615C628.172 507.895 620.372 502.355 613.052 496.635C572.002 464.555 526.442 441.505 475.622 429.305C464.812 426.705 453.832 425.045 442.622 425.595C441.042 425.675 439.452 425.435 436.662 425.285C470.702 389.535 499.682 351.395 522.022 307.255C530.242 309.475 538.332 311.235 546.132 313.845C579.332 324.955 609.632 341.835 638.782 360.935C672.662 383.135 703.552 408.975 731.642 438.105C747.312 454.345 761.272 472.045 772.752 491.545C776.232 497.455 780.032 503.385 780.222 510.645L780.422 510.435Z" fill="#E8E1CD"/>
<path d="M780.212 510.625C780.382 510.695 780.552 510.755 780.722 510.825C780.622 510.695 780.522 510.565 780.412 510.445L780.212 510.625Z" fill="#E8E1CD"/>
</g>
</svg>
