<svg xmlns="http://www.w3.org/2000/svg" width="161" height="356" fill="none"><path fill="#E9E2CF" d="M98.11 32.597c.14 2.66.269 5.331.429 7.992.1 1.62.25 3.24.359 4.871.519 7.452 1.447 14.843 2.985 22.155 1.258 5.981 2.965 11.833 4.761 17.674 1.488 4.841 3.055 9.662 4.073 14.633.869 4.261 1.408 8.562 1.508 12.913.12 5.251-.09 10.493-.469 15.724-.25 3.511-.3 7.051-.33 10.572 0 1.34.23 2.701.469 4.031.609 3.261 2.346 5.831 4.942 7.852 2.196 1.71 4.642 2.961 7.187 4.041 3.235 1.38 6.509 2.68 9.743 4.091 4.862 2.13 9.424 4.771 13.437 8.302 6.459 5.691 10.512 12.802 12.378 21.174a56.274 56.274 0 0 1 1.368 11.563c.05 3.621.09 7.242-.03 10.852-.13 3.881-.429 7.762-.709 11.643a852.372 852.372 0 0 1-.898 11.352c-.31 3.651-.659 7.292-.968 10.943-.23 2.751-.43 5.501-.619 8.252-.27 3.921-.509 7.852-.749 11.772a516 516 0 0 0-.3 5.552c-.219 4.471-.409 8.942-.638 13.413-.25 4.881-.51 9.752-.819 14.633-.329 5.281-.659 10.562-1.078 15.834-.479 5.861-.998 11.712-1.627 17.553-.39 3.591-1.118 7.142-1.508 10.733-.179 1.67-.659 3.151-1.417 4.601-.689 1.31-1.657 2.35-2.815 3.251-2.276 1.78-4.962 2.54-7.697 3.14-3.793.831-7.667 1.171-11.54 1.411-7.078.45-14.165.47-21.253.63-16.072.36-32.144.22-48.216.11-4.742-.03-9.484-.1-14.215-.28-4.912-.18-9.823-.44-14.735-.8-3.833-.28-7.636-.881-11.26-2.201-3.824-1.39-6.519-4.021-7.607-8.042-.29-1.06-.28-2.21-.43-3.48.59.48 1.039.89 1.528 1.26 2.616 2.03 5.63 3.211 8.765 4.141 4.342 1.29 8.805 1.98 13.297 2.45 6.738.71 13.506 1.041 20.275 1.151 5.55.09 11.1.19 16.66.27 6.23.1 12.459.19 18.688.27 3.384.04 6.768.1 10.152.09 5.96-.01 11.91-.28 17.859-.77a238.731 238.731 0 0 0 24.248-3.251 84.59 84.59 0 0 0 2.775-.56c.25-.06.49-.19.699-.44-.778.07-1.557.13-2.326.22-3.124.4-6.249.83-9.383 1.21-2.826.34-5.641.69-8.476.89-5.261.39-10.531.68-15.802 1.01-.499.03-.989.04-1.488.05-9.932.17-19.865-.14-29.788-.36-2.486-.06-4.961-.08-7.447-.14-7.946-.19-15.892-.32-23.829-.61-6.628-.25-13.256-.68-19.805-1.84-3.654-.65-7.237-1.561-10.612-3.171-1.437-.69-2.765-1.52-3.953-2.591-1.807-1.64-2.925-3.58-3.134-6.091-.46-5.451-1.068-10.882-1.568-16.334-.26-2.88-.429-5.771-.628-8.662-.34-4.961-.66-9.922-.979-14.893-.11-1.76-.21-3.521-.3-5.281-.219-4.431-.399-8.852-.638-13.283-.3-5.551-.639-11.103-.978-16.654-.2-3.291-.38-6.591-.63-9.882-.289-3.831-.648-7.662-.978-11.483-.31-3.65-.609-7.301-.898-10.952-.26-3.151-.55-6.312-.739-9.462-.35-5.832-.489-11.663-.32-17.494.11-3.671.52-7.302 1.289-10.893 2.535-11.792 9.194-20.554 19.516-26.616 3.673-2.16 7.576-3.82 11.51-5.421 3.224-1.31 6.468-2.55 9.453-4.371.849-.52 1.667-1.08 2.456-1.69 2.975-2.311 4.612-5.371 5.081-9.102.41-3.291.31-6.592.08-9.882-.11-1.581-.21-3.161-.31-4.742-.359-5.371-.539-10.762-.28-16.143.28-5.751 1.259-11.413 2.876-16.944 1.557-5.341 3.194-10.652 4.762-15.994 2.106-7.211 3.683-14.543 4.552-22.014.409-3.501.768-7.012 1.058-10.523.35-4.23.599-8.472.898-12.823 5.201 2.21 10.602 1.74 16.023 1.41-.16-.54-.58-.4-.899-.43-2.516-.21-5.041-.36-7.547-.62a30.478 30.478 0 0 1-9.493-2.57c-1.009-.45-1.468-1.14-1.448-2.2.02-1.851.05-3.712.05-5.562 0-2.26.02-4.521-.03-6.791-.03-1.35.25-2.651.919-3.781.808-1.38.469-2.46-.46-3.541-.06-.07-.08-.16-.19-.36.16-.4.36-.89.6-1.47-.09-.31-.21-.69-.33-1.09.34-1.331.679-2.681 1.019-4.042.339-1.35.678-1.67 2.036-1.69 1.258-.02 2.526 0 3.783.1 6.49.47 12.988.64 19.486.42 2.526-.08 5.042-.31 7.567-.44 1.258-.06 2.526-.11 3.794-.08 1.208.03 1.577.36 1.876 1.54.35 1.35.679 2.71 1.049 4.181-.529.81-.26 1.68.299 2.4-.389.71-.759 1.271-1.018 1.881-.25.6-.2 1.22.14 1.81.788 1.36 1.148 2.821 1.118 4.401-.04 2.081 0 4.151 0 6.162-1.208 1.23-2.456 2.17-3.913 2.84-3.475 1.61-7.128 2.551-10.882 3.181-5.06.85-10.162.84-15.263.57-1.977-.11-3.933-.46-5.9-.68-.35-.04-.719 0-1.098.13 1.348.28 2.685.58 4.043.82 4.542.8 9.094 1.36 13.716 1.23 3.853-.11 7.657-.57 11.36-1.63 2.786-.8 5.48-1.82 7.837-3.86.239 1.39.15 2.66.1 3.95-4.053 3.591-9.045 4.451-14.096 5.242.45 0 .899.04 1.338 0 2.106-.23 4.212-.46 6.309-.75.799-.11 1.567-.42 2.346-.62.3-.08.609-.12.908-.18l-.03-.03-.02.04Zm43.613 137.411c-.079-.1-.169-.2-.249-.3-.499-1.46-1.587-2.36-2.945-2.911-.679-.28-1.318-.99-2.286-.45.2.26.309.52.509.65 1.398.891 2.805 1.761 4.213 2.621.14.08.339.07.509.1.1.09.19.18.289.26.02.03.05.05.07.08-.04-.01-.08-.03-.11-.04v-.01ZM23.349 294.036s.06.05.09.08l-.12-.04-.25-.56a11.53 11.53 0 0 0-1.846-5.131c-.27-.41-.53-.83-1.208-.84-.03.29-.16.57-.07.76.55 1.23 1.088 2.47 1.747 3.63.34.591.929 1.041 1.408 1.551.09.18.17.36.26.54l-.01.01Zm95.075 41.249c.19-.07.379-.15.569-.22 2.126 0 3.504-1.35 4.832-2.75.129-.14.059-.471.099-.841-.369.09-.648.09-.848.21-.679.441-1.348.881-1.967 1.391-.748.61-1.437 1.3-2.146 1.95-.17.1-.339.19-.499.29-.03.02-.05.04-.08.06.01-.03.03-.07.04-.1v.01Zm-67.433-12.473.08.09s-.06-.03-.11-.06c-.818-1.51-2.346-2-3.773-2.65-.13-.06-.4.18-.639.3 1.168 1.14 2.795 1.97 4.442 2.32Zm-7.317-4.331.09.08s-.06-.02-.12-.05c-.789-2.01-2.555-3.01-4.253-4.06-.3-.18-.718-.11-.818.57 1.557 1.28 3.164 2.6 5.101 3.46Zm90.463 5.952c2.116-.27 3.264-1.731 4.152-3.461.11-.2-.03-.53-.049-.85-1.218.53-2.866 2.34-4.073 4.351l-.1.08s.03-.06.06-.11l.01-.01Zm-97.78-11.673s.05.06.07.09c-.04-.02-.07-.03-.11-.05-.899-2.5-2.576-4.811-3.953-5.401-.65.48-.21.94.07 1.36 1.068 1.561 2.256 3.011 3.913 4.001h.01Zm-7.038-8.682s.07.09.08.11a.815.815 0 0 0-.12-.08c-.47-2.33-1.448-4.371-3.254-5.991-.6.72-.67.85-.2 1.55 1.048 1.561 2.056 3.151 3.494 4.401v.01Zm96.692 26.336c1.357.02 2.535-.53 3.614-1.28a7.22 7.22 0 0 0 1.387-1.26c.369-.431.27-.641-.339-1.181a306.35 306.35 0 0 0-3.185 2.221 3.45 3.45 0 0 0-.619.52c-.299.32-.559.68-.838 1.02-.04.05-.08.11-.11.16l.09-.18v-.02Zm-107.513-46.45c.02.11.05.23.02.12.07.1 0 0-.06-.09-.1-.66-.14-1.351-.33-1.991-.529-1.76-1.118-3.501-1.707-5.251-.11-.34-.3-.67-.848-.53-.44.5-.17 1.08-.03 1.61.539 2.171 1.677 4.061 2.735 5.992.03.06.14.09.22.13v.01Zm115.399-119.447s.05.06.08.09l-.12-.06c-.599-.66-1.148-1.37-1.797-1.981-1.228-1.17-2.805-1.54-4.422-1.75-.419-.05-.809.08-.819.74.27.14.569.31.879.46 1.258.59 2.496 1.201 3.773 1.731.769.32 1.598.52 2.406.77h.02ZM86.48 50.511c.06.03.11.07.17.1-.06-.03-.13-.05-.19-.08-.35-.5-.66-1.04-1.059-1.5-1.098-1.26-2.465-1.89-4.172-1.82-1.478.06-2.975.09-4.453 0a28.696 28.696 0 0 1-4.132-.56c-1.757-.37-3.275-1.24-4.453-2.621-.28-.33-.439-.75-.659-1.13l-.03.04c1.568.93 3.225 1.58 5.062 1.78 2.136.23 4.222-.11 6.329-.34.14-.02.26-.14.38-.21-1.998-.26-3.974-.46-5.92-.79-2.406-.41-4.583-1.35-6.27-3.211-.479-.52-.978-1.04-.808-2.06-.35.3-.58.4-.66.57-.818 1.6-1.327 3.26-1.017 5.09.2 1.201.369 2.411.589 3.612.808 4.36.738 8.721-.15 13.063-.1.49-.21.97-.33 1.45-.11.47-.24.95-.359 1.42 1.577-2.41 2.516-5.011 2.955-7.812.499-3.17.26-6.311-.43-9.422-.14-.63-.279-1.26-.409-1.89 1.398 1.8 3.115 2.99 5.221 3.58 2.147.6 4.353.7 6.569.51 1.078-.1 2.156-.15 3.234-.26 1.458-.14 2.636.39 3.674 1.371.42.4.878.75 1.328 1.12h-.01Zm-5.96 147.203v.13H67.253c-5.37.01-10.741.02-16.112.06-9.294.07-18.598.15-27.891.23-1.668.01-1.917.19-2.317 1.831-.788 3.261-1.128 6.591-1.397 9.922-.16 1.89-.16 3.791-.33 5.681-.329 3.741-.549 7.482-.479 11.243.07 3.391.11 6.781.26 10.172.14 3.251.24 6.512.639 9.742.549 4.481 1.218 8.962 2.096 13.393 2.456 12.373 6.988 23.936 13.886 34.518 4.802 7.382 10.901 13.463 18.358 18.164 6.27 3.941 13.177 6.122 20.474 6.972 5.63.66 11.25.41 16.831-.77 4.453-.931 8.715-2.351 12.738-4.461 7.527-3.951 13.706-9.513 18.847-16.234 5.65-7.402 9.624-15.714 12.738-24.436 2.446-6.831 4.053-13.883 5.041-21.064.509-3.671.839-7.362 1.168-11.053.18-1.98.27-3.971.3-5.961.08-4.931.249-9.862.1-14.783-.14-4.741-.569-9.473-1.019-14.194-.219-2.38-.708-4.731-1.168-7.081-.269-1.341-.609-1.551-1.946-1.581-2.296-.06-4.602-.13-6.898-.16-2.576-.03-5.151-.02-7.717-.04-11.1-.07-22.211-.16-33.312-.23-3.204-.02-6.409 0-9.613 0l-.01-.01Zm-21.083-97.672c-.1-.02-.19-.04-.29-.07-.08.11-.18.21-.22.33-.588 1.941-1.247 3.871-1.727 5.842-.808 3.301-1.028 6.681-1.188 10.082-.2 4.231.12 8.402.81 12.553.488 2.941 1.117 5.861 1.586 8.812 1.009 6.251-1.058 11.312-6.06 15.133-1.137.87-2.385 1.661-3.683 2.261a100.76 100.76 0 0 1-7.117 2.97c-4.443 1.661-8.825 3.461-12.988 5.752-5.23 2.88-9.932 6.421-13.706 11.102-4.692 5.811-7.407 12.453-8.315 19.855-.24 1.97-.44 3.951-.63 5.921-.16 1.8-.279 3.601-.409 5.401 0 .14.04.28.06.41.35-1.57.56-3.13.68-4.691.269-3.421.708-6.821 1.417-10.182 1.427-6.682 4.382-12.593 8.964-17.684 4.183-4.651 9.344-7.922 14.924-10.602 4.243-2.041 8.685-3.551 13.097-5.132 2.426-.87 4.792-1.86 6.988-3.23 3.264-2.031 5.82-4.691 7.377-8.262.16-.37.32-.76.55-1.09 1.646-2.331 3.423-4.561 5.51-6.512 1.607-1.51 3.494-2.37 5.79-2.12.758.08 1.537.03 2.296 0 1.926-.06 3.484-.841 4.612-2.431.26-.37.539-.73.798-1.1.929-1.31 2.156-2.151 3.754-2.451.429-.08.848-.23 1.268-.35a8.992 8.992 0 0 0-2.726-.5c-3.254-.04-6.359.64-9.284 2.101-4.063 2.04-7.447 4.901-10.242 8.492-.33.42-.659.84-1.108 1.42-.05-.46-.11-.71-.1-.96.05-1.911-.25-3.781-.609-5.652-.639-3.28-1.267-6.571-1.876-9.852-.53-2.871-.04-5.571 1.417-8.102.54-.94 1.098-1.87 1.637-2.81 1.228-2.171 1.428-4.411.66-6.802-.83-2.57-1.898-5.081-1.947-7.862l.03.01Zm84.343 93.401c.14 1.131.319 2.071.359 3.011.13 3.161.2 6.331.32 9.492.09 2.531.209 5.061.319 7.592.15 3.701.379 7.412.429 11.112.06 5.242.23 10.493-.199 15.734-.22 2.741-.3 5.501-.619 8.242-.3 2.54-.829 5.061-1.248 7.591-.12.691-.21 1.381-.319 2.081 1.197-4.401 1.946-8.892 2.395-13.413.36-3.591.679-7.202.779-10.812.13-4.702.08-9.413 0-14.114-.08-4.791-.279-9.582-.439-14.373-.08-2.39-.21-4.791-.31-7.182-.07-1.67-.139-3.34-.219-5.011-.01-.27-.05-.53-.07-.72-.459-.57-1.018-.48-1.557-.48-1.128 0-2.257 0-3.385-.01-3.563-.05-7.127-.11-10.691-.15-1.487-.02-2.975-.05-4.472-.03-2.506.03-4.952-.35-7.357-.97-3.484-.88-6.779-2.211-9.614-4.501-1.757-1.42-3.144-3.121-3.843-5.301-.619-1.961-.16-3.261 1.447-4.511.819-.631 1.648-1.271 2.386-1.991 1.168-1.15 1.667-2.59 1.328-4.211-.339-1.63-1.348-2.87-2.585-3.961-.03.24 0 .45.089.63.619 1.331.38 2.551-.499 3.681l-1.677 2.131c-.958 1.23-1.687 2.59-1.817 4.171-.139 1.63.06 3.25.41 4.841.529 2.39 1.986 4.231 3.793 5.801 1.927 1.68 4.153 2.871 6.539 3.761.339.13.668.29 1.008.44-.509.19-.958.18-1.408.19-2.975.05-5.959.09-8.934.16-8.485.21-16.96.55-25.446.63-14.854.14-29.698.12-44.552.17-.28 0-.55.04-.829.06.26.24.51.32.759.33 2.935.12 5.86.24 8.794.34 2.706.09 5.411.201 8.116.221 10.382.08 20.764.22 31.136.15 12.369-.08 24.727-.351 37.096-.541 7.537-.11 15.073-.23 22.61-.33.619 0 1.238.06 1.957.09l.02-.04Zm-85.8 146.863-.03.11c.329.1.648.25.987.3 1.328.231 2.666.411 3.994.661 3.863.72 7.766 1.07 11.68 1.24 4.701.2 9.383-.11 14.035-.81 9.912-1.501 19.276-4.641 27.891-9.842 13.846-8.352 23.709-20.005 29.04-35.378.738-2.131 1.317-4.321 2.136-6.422 2.007-5.211 2.835-10.632 3.204-16.164.05-.84 0-1.69 0-2.53-.329.14-.419.32-.499.51-.309.79-.529 1.63-.928 2.371-.569 1.02-1.278 1.97-1.917 2.95-.768 1.17-1.577 2.311-2.286 3.521-1.058 1.82-1.437 3.791-.948 5.881.299 1.271.659 2.531.968 3.801.36 1.481.36 2.961-.159 4.401-3.185 8.932-7.917 16.924-14.445 23.816-7.917 8.361-17.37 14.333-28.181 18.194-6.659 2.38-13.527 3.82-20.575 4.391-5.28.43-10.541.31-15.812-.08-1.168-.09-2.326-.28-3.484-.421-1.557-.18-3.115-.34-4.682-.51l.01.01Zm49.882-196.414c-.04-.53-.07-1.07-.119-1.6-.13-1.44-.31-2.871-.39-4.311-.249-4.401.439-8.752.899-13.103.599-5.701.549-11.373-.22-17.054-.789-5.841-2.066-11.573-3.524-17.264-2.715-10.642-5.56-21.255-7.587-32.057-.519-2.75-.978-5.491-.998-8.322-.01-2.15-.41-4.31-.669-6.461-.07-.58-.21-1.15-.37-1.72-.059-.21-.259-.39-.518-.76-.05.55-.12.86-.09 1.16.09.93-.1 1.79-.51 2.62-.369.77-.698 1.57-1.017 2.37a5.51 5.51 0 0 0 1.297 5.992c.35.34.72.73.889 1.17.39 1.05.769 2.13.968 3.23.45 2.441.769 4.912 1.178 7.353 1.258 7.451 2.905 14.813 4.702 22.144 1.717 7.022 3.444 14.054 4.522 21.215.978 6.432.968 12.883.549 19.355-.15 2.25-.309 4.521-.239 6.771.089 3.111.399 6.212 1.237 9.262l.01.01Zm-93.188 98.462s-.1.02-.15.04c.25 2.491.38 5.012.76 7.482.708 4.591 1.467 9.182 2.375 13.743 1.617 8.142 4.053 16.034 7.587 23.555 4.512 9.603 10.452 18.165 18.548 25.116 10.711 9.192 23.09 13.483 37.195 12.663.5-.03.988-.16 1.487-.25-2.096-.25-4.162-.39-6.229-.48-4.033-.17-7.946-1-11.81-2.151-10.58-3.15-19.166-9.312-26.343-17.584-5.56-6.401-9.753-13.663-13.098-21.435-4.152-9.652-6.608-19.774-8.385-30.086-.579-3.381-1.138-6.762-1.717-10.143-.03-.16-.14-.31-.22-.47ZM61.234 7.031c.618 0 1.018-.01 1.417 0 2.655.11 5.31.2 7.966.35 2.116.12 4.223.35 6.33.46 4.062.2 8.115-.06 12.168-.27 2.605-.14 5.21-.36 7.816-.52.889-.05 1.787 0 2.656 0 .28-.62.16-1.02-.37-1.16-.379-.1-.818-.13-1.188-.04-2.964.7-5.99.72-9.004.86-3.644.18-7.307.16-10.96.12-2.886-.03-5.77-.26-8.646-.3-1.677-.02-3.324-.11-4.961-.47-.659-.15-1.338-.25-2.007-.28-.33-.01-.708.15-.978.35-.16.12-.13.47-.24.91v-.01Zm.618 2.621c.949-.06 1.707-.15 2.456-.15 5.141.07 10.282.19 15.413.22 3.245.02 6.489-.12 9.733-.17 2.346-.03 4.692-.05 7.038-.05.849 0 1.687.08 2.675.13.3-.32.919-.67.36-1.44a210.802 210.802 0 0 1-38.104 0c-.39.8.1 1.13.42 1.44l.01.02Zm.31 65.865c.659-1.25 1.298-2.29 1.757-3.4.469-1.161.788-2.391 1.118-3.602.14-.51.23-1.09-.63-1.38-.199.22-.518.44-.628.73-.879 2.4-1.837 4.781-1.617 7.652Zm82.896 235.843c-1.618 1.33-2.606 3.101-3.744 4.741-.399.57-.719 1.22-.639 1.97.739.05 1.218-.3 1.558-.77 1.257-1.69 2.385-3.481 3.304-5.391-.17-.19-.28-.32-.489-.55h.01ZM59.467 85.48c.389-.711.678-1.271.998-1.811.848-1.44 1.098-3.051 1.347-4.651.07-.47 0-.91-.579-1.04-.958.87-1.936 4.87-1.776 7.501h.01ZM14.554 272.07s.09-.02.14-.02c-.25-1.82-.46-3.641-.78-5.451-.149-.83-.508-1.631-.798-2.431-.17-.47-.45-.78-1.148-.49 0 .39-.05.82.01 1.24.07.441.23.871.39 1.291.718 1.96 1.457 3.911 2.186 5.871v-.01Zm138.848-84.869c.739 2.15.869 4.511 2.336 6.401.349-2.77-.599-5.671-2.336-6.401ZM57.59 94.001c.978-2.02 2.276-3.86 2.036-6.151-.718-.31-.998.03-1.148.5-.589 1.8-1.248 3.59-.888 5.651Zm90.962 83.019c-.34-.79-.529-1.341-.789-1.851-.609-1.2-1.557-2.07-2.775-2.63-.21-.1-.479-.05-.749-.07.21 1.07.998 1.9 4.313 4.551Zm-41.818 163.316c-1.138-.18-3.504.741-5.49 2.111h1.996c1.238.02 2.256-.55 3.245-1.19.319-.21.499-.521.249-.921Zm45.98-156.045c.1-2.09-1.317-4.391-3.074-4.941 0 .24-.08.49.01.65.868 1.521 1.637 3.121 3.064 4.291Zm-37.025 152.545c-.559-.38-.939-.2-1.298-.02-.928.45-1.867.91-2.785 1.38-.399.2-.789.44-1.178.67-.33.2-.659.43-1.208.79 2.536-.48 4.812-.83 6.469-2.82Zm-16.781 6.211c-.21-.67-.58-.77-.939-.66-1.397.43-2.834.78-4.172 1.76 1.966.36 3.633.14 5.11-1.1Zm57.61-141.522c.279-2.32.04-3.771-.809-4.861-.719 1.03-.559 2.011.809 4.861ZM90.632 344.467c-1.038-.69-1.278-.65-4.472.54 1.547.27 3.055.601 4.472-.54Zm65.297-137.921c-.909 2.001-.13 3.771 0 5.602.619-1.971.669-4.371 0-5.602ZM56.013 325.063l-.24.24c.16.23.27.56.49.67 1.077.53 2.225.72 3.473.56-1.098-1.04-2.506-1-3.723-1.47ZM56.9 97.132c.46-.38.659-.83.599-1.35-.26.58-.43.97-.599 1.35Z"/></svg>