<svg width="291" height="106" viewBox="0 0 291 106" fill="none" xmlns="http://www.w3.org/2000/svg">
<path d="M274.36 104.27C276.75 103.07 278.02 101.12 278.74 98.56C279.67 95.25 281.62 92.51 284.32 90.38C285.82 89.2 286.99 87.78 287.45 85.96C287.97 83.88 288.49 81.75 288.57 79.63C288.66 77.37 288.68 75.11 288.68 72.84C289.11 72.83 289.54 72.81 289.97 72.77C289.97 76.36 289.96 79.95 289.96 83.53C289.96 88 289.59 92.38 287.84 96.55C286.87 98.87 285.58 100.97 283.66 102.66C280.81 105.17 277.4 105.29 273.86 105.38C273.89 104.92 273.86 104.79 273.91 104.72C274.04 104.56 274.18 104.36 274.36 104.27Z" fill="#ACA38C"/>
<path d="M45.49 2.88999C45.4 2.33999 45.33 1.78999 45.28 1.23999C41.54 0.879991 37.78 0.709993 33.99 0.819993C22.23 1.15999 11.1 3.77999 1.33997 10.79C1.04997 11 0.829956 11.3 0.579956 11.56C5.28996 10.43 9.89001 10.85 14.51 11.26C17.7 11.54 20.7201 10.76 23.4301 8.88C25.0201 7.77 26.69 6.72999 28.42 5.85999C33.78 3.17999 39.52 2.07999 45.42 2.87999C45.44 2.87999 45.46 2.87999 45.49 2.88999Z" fill="#ACA38C"/>
<path d="M288.39 72.87L288.38 2.95L45.29 2.99V1.1L290.26 1.06L290.28 72.87H288.39Z" fill="#ACA38C"/>
</svg>
