<svg width="291" height="106" viewBox="0 0 291 106" fill="none" xmlns="http://www.w3.org/2000/svg">
<path d="M16.5 1.90002C14.11 3.10002 12.84 5.04999 12.12 7.60999C11.19 10.92 9.23998 13.66 6.53998 15.79C5.03998 16.97 3.86997 18.39 3.40997 20.21C2.88997 22.29 2.36998 24.42 2.28998 26.54C2.19998 28.8 2.17999 31.06 2.17999 33.33C1.74999 33.34 1.32001 33.36 0.890015 33.4C0.890015 29.81 0.890024 26.22 0.900024 22.64C0.900024 18.17 1.27002 13.79 3.02002 9.62C3.99002 7.3 5.28001 5.20001 7.20001 3.51001C10.05 1.00001 13.46 0.879978 17 0.789978C16.97 1.24998 17 1.38001 16.95 1.45001C16.81 1.61001 16.68 1.81002 16.5 1.90002Z" fill="#ACA38C"/>
<path d="M245.37 103.29C245.46 103.84 245.53 104.39 245.58 104.94C249.32 105.3 253.08 105.47 256.87 105.36C268.63 105.02 279.76 102.4 289.52 95.39C289.81 95.18 290.03 94.88 290.28 94.62C285.57 95.75 280.97 95.33 276.35 94.92C273.16 94.64 270.14 95.42 267.43 97.3C265.84 98.41 264.17 99.45 262.44 100.32C257.08 103 251.34 104.1 245.44 103.3C245.41 103.29 245.39 103.29 245.37 103.29Z" fill="#ACA38C"/>
<path d="M2.46997 33.3L2.47998 103.23L245.57 103.19V105.07L0.590027 105.11L0.580017 33.3H2.46997Z" fill="#ACA38C"/>
</svg>
