<svg width="12" height="18" viewBox="0 0 12 18" fill="none" xmlns="http://www.w3.org/2000/svg">
<path d="M5.94502 0C2.66269 0 0 2.66191 0 5.94321C0 9.22452 5.94502 17.6203 5.94502 17.6203C5.94502 17.6203 11.89 9.22452 11.89 5.94321C11.89 2.66191 9.22734 0 5.94502 0ZM2.98925 5.9683C2.98925 4.33602 4.31223 3.02185 5.93665 3.02185C7.56106 3.02185 8.88404 4.34439 8.88404 5.9683C8.88404 7.59221 7.56106 8.91479 5.93665 8.91479C4.31223 8.91479 2.98925 7.59221 2.98925 5.9683ZM7.6113 12.6565C8.06346 11.6185 8.57423 10.6308 9.00127 9.63466C10.4331 6.5124 10.7178 3.34827 7.55268 1.20538C11.6305 2.41913 11.6472 6.88073 9.66275 9.96951C9.085 10.9489 8.38165 11.8361 7.60293 12.6565H7.6113Z" fill="#4A6B7B"/>
</svg>
