<svg xmlns="http://www.w3.org/2000/svg" width="173" height="172" fill="none"><g clip-path="url(#a)"><path d="M0 0h173v171.675H0z"/><path fill="#E9E2CF" d="m134.826 121.492 3.048-4.545 16.959 11.363 4.085-6.104 3.975 2.664-11.225 16.753-3.976-2.664 4.085-6.104-16.958-11.363h.007ZM130.809 141.128l-6.014-8.754 4.538-3.117 14.267 20.777-4.538 3.117-5.486-7.985-9.049 6.213 5.479 7.985-4.511 3.097-14.267-20.776 4.51-3.097 6.015 8.754 9.049-6.214h.007ZM108.907 168.647l-18.29 3.028-.784-4.724 12.86-2.128-.851-5.15-11.082 1.834-.728-4.408 11.082-1.834-.975-5.897-13.217 2.19-.776-4.69 18.648-3.089 4.12 24.861-.007.007ZM22.87 124.534c5.418-4.854 13.574-4.381 18.6 1.222 5.019 5.602 4.614 13.512-.803 18.366-5.418 4.854-13.602 4.401-18.62-1.201-5.02-5.603-4.587-13.533.83-18.387h-.007Zm3.708 4.03c-3.323 2.98-3.66 7.731-.707 11.027 2.98 3.323 7.71 3.481 11.04.501 3.35-3.001 3.715-7.724.735-11.054-2.953-3.296-7.71-3.481-11.068-.481v.007ZM12.139 91.99c7.024-1.903 14.096 2.19 16.06 9.454 1.963 7.264-1.958 14.143-8.981 16.045-7.024 1.902-14.13-2.183-16.094-9.447-1.964-7.264 1.991-14.15 9.015-16.053Zm1.497 5.265c-4.312 1.168-6.75 5.26-5.59 9.53 1.168 4.312 5.322 6.578 9.634 5.417 4.346-1.174 6.79-5.231 5.623-9.543-1.154-4.278-5.321-6.578-9.667-5.404ZM16.464 60.468c7.045 1.298 11.384 8.143 9.915 16.107l-1.6 8.672L0 80.674l1.634-8.85c1.47-7.964 7.786-12.66 14.837-11.356h-.007Zm5.3 14.96c.873-4.743-1.791-8.746-6.213-9.563-4.428-.817-8.307 1.984-9.186 6.728l-.653 3.543 15.4 2.843.653-3.543v-.007ZM23.852 26.351c4.477-4.936 9.523-4.442 9.523-4.442l-.096 5.355s-3.103-.336-5.712 2.548c-3 3.309-2.671 8.033.638 11.033 3.33 3.021 8.068 2.898 11.068-.412 2.76-3.041 1.93-6.468 1.93-6.468l5.17-.556s1.228 5.342-3.44 10.492c-5.054 5.575-12.963 5.98-18.353 1.098-5.39-4.889-5.788-13.073-.728-18.648ZM52.517 6.88c4.93-2.211 9.647-.666 11.624 3.741 1.476 3.282.755 6.688-1.716 9.098l10.21 6.33-6.352 2.273-8.712-5.603-3.55 1.593 3.556 7.916-4.881 2.561-10.47-23.296L52.503 6.88h.013Zm-.226 13.56 4.634-2.08c2.465-1.106 3.262-3.2 2.348-5.24-.913-2.039-3.007-2.835-5.472-1.73l-4.634 2.08 3.124 6.963v.007ZM95.34 25.404l-1.902-5.335-10.08-.213-2.128 5.246-5.98.384L86.236 0l5.472.117 9.887 26.186-6.255-.9Zm-3.358-9.722-3.295-9.324-3.728 9.173 7.017.15h.006ZM109.799 29.99l-4.971-2.375 10.862-22.74 16.41 7.84-2.067 4.32-11.438-5.466-2.733 5.72 9.811 4.689-2.004 4.188-9.812-4.69-4.064 8.514h.006ZM130.521 44.58l-3.893-3.845 14.343-14.528-5.225-5.163 3.364-3.406 14.35 14.165-3.365 3.405-5.225-5.163-14.342 14.528-.007.007ZM47.21 148.344c2.664-6.536 9.386-9.852 16.238-7.099 6.982 2.808 10.106 10.114 7.394 16.863-2.712 6.749-10.237 9.935-17.22 7.133-6.179-2.485-7.504-7.202-7.504-7.202l4.992-2.19s.817 3.275 4.497 4.751c4.147 1.662 8.445-.254 10.148-4.504 1.702-4.243-.062-8.637-4.21-10.306-3.714-1.496-6.995.014-8.382 2.747l6.488 2.609-1.476 3.673-11.583-4.655s.343-1.167.611-1.833l.007.013ZM119.467 78.065c6.66 0 9.687 4.072 9.687 4.072l-4.03 3.529s-1.833-2.52-5.726-2.52c-4.463 0-7.745 3.42-7.745 7.889 0 4.47 3.275 7.923 7.745 7.923 4.106 0 6.083-2.918 6.083-2.918l3.886 3.454s-3.131 4.504-10.079 4.504c-7.525 0-13.141-5.582-13.141-12.853s5.795-13.073 13.32-13.073v-.007ZM160.147 90.953c0 7.27-5.795 13.031-13.32 13.031s-13.141-5.582-13.141-12.853 5.795-13.073 13.32-13.073 13.141 5.617 13.141 12.894Zm-5.472.075c0-4.463-3.309-7.889-7.745-7.889-4.435 0-7.745 3.42-7.745 7.889 0 4.47 3.276 7.923 7.745 7.923 4.47 0 7.745-3.419 7.745-7.923ZM173 99.59a3.266 3.266 0 0 1-3.275 3.275 3.266 3.266 0 0 1-3.275-3.275 3.244 3.244 0 0 1 3.275-3.275A3.266 3.266 0 0 1 173 99.59Z"/></g><defs><clipPath id="a"><path fill="#fff" d="M0 0h173v171.675H0z"/></clipPath></defs></svg>